# xmcd CD database file
#
# Track frame offsets:
#	150
#	13368
#	23551
#	40921
#	54494
#	70599
#	82841
#	93584
#	105709
#	120934
#	131917
#	148263
#	159475
#
# Disc length: 2349 seconds
#
# Revision: 0
# Processed by: cddbd v1.5.1PL0 Copyright (c) Steve Scherf et al.
# Submitted via: CDex 1.51
#
DISCID=a8092b0d
DTITLE=Johny Lee Hooker - I'm In The Mood
DYEAR=1999
DGENRE=Blues
TTITLE0=Baby Lee
TTITLE1=Dimples
TTITLE2=Blues Before Sunrise
TTITLE3=I'm Goin' Upstairs
TTITLE4=Thelma
TTITLE5=I'm In The Mood
TTITLE6=Let's Make It
TTITLE7=Whiskey And Women
TTITLE8=Crawling King Snake
TTITLE9=No Shoes
TTITLE10=Process
TTITLE11=Good Rockin' Mama
TTITLE12=When My First Wife Left Me
EXTD=YEAR: 1999
EXTT0=
EXTT1=
EXTT2=
EXTT3=
EXTT4=
EXTT5=
EXTT6=
EXTT7=
EXTT8=
EXTT9=
EXTT10=
EXTT11=
EXTT12=
PLAYORDER=
